<svg xmlns="http://www.w3.org/2000/svg" width="178" height="52" viewBox="0 0 178 52" role="img" aria-label="עברית">
  <defs>
    <linearGradient id="fill" x1="0" y1="0" x2="0.25" y2="1">
      <stop offset="0" stop-color="#FFB75A"/><stop offset="0.5" stop-color="#FF8A2E"/><stop offset="1" stop-color="#F0610F"/>
    </linearGradient>
    <radialGradient id="gloss" cx="0.5" cy="0.0" r="0.9">
      <stop offset="0" stop-color="#FFFFFF" stop-opacity="0.32"/><stop offset="0.5" stop-color="#FFFFFF" stop-opacity="0.05"/><stop offset="1" stop-color="#FFFFFF" stop-opacity="0"/>
    </radialGradient>
    <filter id="og" x="-40%" y="-60%" width="180%" height="240%"><feGaussianBlur stdDeviation="6"/></filter>
    <clipPath id="cp"><rect x="1" y="1" width="176" height="50" rx="12"/></clipPath>
  </defs>
  <rect x="3" y="5" width="172" height="46" rx="13" fill="#FF7A1E" opacity="0.45" filter="url(#og)"/>
  <rect x="1" y="1" width="176" height="50" rx="12" fill="url(#fill)"/>
  <g clip-path="url(#cp)">
    <rect x="1" y="1" width="176" height="28.6" fill="url(#gloss)"/>
    <rect x="1" y="45" width="176" height="6" fill="#7A2E00" opacity="0.30"/>
  </g>
  <rect x="1.5" y="1.5" width="175" height="49" rx="11.5" fill="none" stroke="#FFD9A8" stroke-opacity="0.55" stroke-width="1.1"/>
  <circle cx="29.99000000000001" cy="26.0" r="10" fill="none" stroke="#2A1206" stroke-width="1.8"/><ellipse cx="29.99000000000001" cy="26.0" rx="4.1" ry="10" fill="none" stroke="#2A1206" stroke-width="1.5"/><line x1="19.99000000000001" y1="26.0" x2="39.99000000000001" y2="26.0" stroke="#2A1206" stroke-width="1.5"/><path d="M21.19000000000001,20.8 H38.790000000000006" stroke="#2A1206" stroke-width="1.2"/><path d="M21.19000000000001,31.2 H38.790000000000006" stroke="#2A1206" stroke-width="1.2"/>
  <path d="M79.32000000000002 35.0V23.21Q79.32000000000002 21.740000000000002 78.60000000000002 21.005000000000003Q77.88000000000001 20.270000000000003 76.50000000000001 20.270000000000003H68.31000000000002V17.0H76.71000000000001Q79.98000000000002 17.0 81.63000000000002 18.545Q83.28000000000002 20.09 83.28000000000002 23.12V35.0ZM65.04000000000002 35.0 65.46000000000002 31.73H66.54000000000002Q67.17000000000002 31.73 67.54500000000002 31.490000000000002Q67.92000000000002 31.25 68.11500000000001 30.755Q68.31000000000002 30.259999999999998 68.31000000000002 29.54V17.810000000000002H72.27000000000001V29.509999999999998Q72.27000000000001 32.18 71.01000000000002 33.59Q69.75000000000001 35.0 67.32000000000002 35.0ZM65.55000000000001 20.270000000000003 65.97000000000001 17.0H70.47000000000001V20.270000000000003ZM88.29000000000002 27.32V17.0H92.25000000000003V27.32ZM85.77000000000002 20.270000000000003 86.19000000000003 17.0H90.54000000000002V20.270000000000003ZM104.37000000000002 35.0V23.21Q104.37000000000002 21.740000000000002 103.65000000000002 21.005000000000003Q102.93000000000002 20.270000000000003 101.55000000000003 20.270000000000003H95.40000000000002L95.82000000000002 17.0H101.76000000000002Q105.00000000000001 17.0 106.66500000000002 18.545Q108.33000000000001 20.09 108.33000000000001 23.12V35.0ZM120.45000000000002 35.0V23.21Q120.45000000000002 21.740000000000002 119.73000000000002 21.005000000000003Q119.01000000000002 20.270000000000003 117.63000000000001 20.270000000000003H111.81000000000002L112.26000000000002 17.0H117.84000000000002Q121.08000000000001 17.0 122.745 18.545Q124.41000000000001 20.09 124.41000000000001 23.12V32.06Q124.23000000000002 32.81 123.73500000000001 33.56Q123.24000000000001 34.31 122.70000000000002 35.0ZM110.91000000000001 35.0V31.73H126.63000000000001L126.21000000000001 35.0ZM128.49 36.11V32.84L135.27 31.46Q136.44000000000003 31.19 137.34000000000003 30.695Q138.24 30.2 138.9 29.195Q139.56 28.19 139.965 26.509999999999998Q140.37 24.83 140.55 22.16L140.88000000000002 17.0H144.84L144.51000000000002 22.25Q144.39000000000001 24.29 144.07500000000002 26.015Q143.76000000000002 27.740000000000002 143.13 29.150000000000002Q142.5 30.560000000000002 141.48000000000002 31.655Q140.46 32.75 138.93 33.5Q137.4 34.25 135.3 34.7ZM132.93 33.44 129.36 17.27 133.23000000000002 16.79 135.72000000000003 28.4Q135.93 29.240000000000002 135.82500000000002 30.125Q135.72000000000003 31.01 135.36 31.865000000000002Q135.0 32.72 134.4 33.44Z" fill="#2A1206"/>
</svg>